<mxfile host="app.diagrams.net" modified="2020-09-29T02:37:08.279Z" agent="5.0 (Macintosh; Intel Mac OS X 10_15_6) AppleWebKit/537.36 (KHTML, like Gecko) Chrome/85.0.4183.102 Safari/537.36" etag="wY7RgoVxxSjiH031XSt8" version="13.7.5" type="github">
  <diagram id="0R1KgyZivqST2G8Sgrir" name="Page-1">
    <mxGraphModel dx="190" dy="155" grid="1" gridSize="10" guides="1" tooltips="1" connect="1" arrows="1" fold="1" page="1" pageScale="1" pageWidth="827" pageHeight="1169" math="0" shadow="0">
      <root>
        <mxCell id="0" />
        <mxCell id="1" parent="0" />
        <mxCell id="F2EInP20JMvGmBjEMHAI-1" value="" style="verticalLabelPosition=bottom;verticalAlign=top;html=1;shape=mxgraph.basic.rect;fillColor2=none;strokeWidth=1;size=20;indent=5;fillColor=#ffe6cc;strokeColor=#d79b00;" vertex="1" parent="1">
          <mxGeometry x="250" y="410" width="120" height="30" as="geometry" />
        </mxCell>
        <mxCell id="F2EInP20JMvGmBjEMHAI-3" value="" style="verticalLabelPosition=bottom;verticalAlign=top;html=1;shape=mxgraph.flowchart.on-page_reference;gradientColor=none;" vertex="1" parent="1">
          <mxGeometry x="260" y="420" width="10" height="10" as="geometry" />
        </mxCell>
        <mxCell id="F2EInP20JMvGmBjEMHAI-4" value="" style="verticalLabelPosition=bottom;verticalAlign=top;html=1;shape=mxgraph.flowchart.on-page_reference;gradientColor=none;" vertex="1" parent="1">
          <mxGeometry x="280" y="420" width="10" height="10" as="geometry" />
        </mxCell>
        <mxCell id="F2EInP20JMvGmBjEMHAI-5" value="" style="verticalLabelPosition=bottom;verticalAlign=top;html=1;shape=mxgraph.flowchart.on-page_reference;gradientColor=none;" vertex="1" parent="1">
          <mxGeometry x="301" y="420" width="10" height="10" as="geometry" />
        </mxCell>
        <mxCell id="F2EInP20JMvGmBjEMHAI-6" value="" style="verticalLabelPosition=bottom;verticalAlign=top;html=1;shape=mxgraph.flowchart.on-page_reference;gradientColor=none;" vertex="1" parent="1">
          <mxGeometry x="350" y="420" width="10" height="10" as="geometry" />
        </mxCell>
        <mxCell id="F2EInP20JMvGmBjEMHAI-7" value="" style="endArrow=none;html=1;rounded=0;" edge="1" parent="1" target="F2EInP20JMvGmBjEMHAI-1">
          <mxGeometry relative="1" as="geometry">
            <mxPoint x="250" y="420" as="sourcePoint" />
            <mxPoint x="410" y="420" as="targetPoint" />
          </mxGeometry>
        </mxCell>
        <mxCell id="F2EInP20JMvGmBjEMHAI-8" value="" style="endArrow=none;html=1;rounded=0;dashed=1;" edge="1" parent="1">
          <mxGeometry relative="1" as="geometry">
            <mxPoint x="316" y="424.9" as="sourcePoint" />
            <mxPoint x="346" y="424.9" as="targetPoint" />
            <Array as="points">
              <mxPoint x="326" y="424.9" />
            </Array>
          </mxGeometry>
        </mxCell>
      </root>
    </mxGraphModel>
  </diagram>
</mxfile>
